<?xml version="1.0" encoding="utf-8"?>
<!-- Generator: Adobe Illustrator 16.0.4, SVG Export Plug-In . SVG Version: 6.00 Build 0)  -->
<!DOCTYPE svg PUBLIC "-//W3C//DTD SVG 1.1//EN" "http://www.w3.org/Graphics/SVG/1.1/DTD/svg11.dtd">
<svg version="1.1" id="Layer_1" xmlns="http://www.w3.org/2000/svg" xmlns:xlink="http://www.w3.org/1999/xlink" x="0px" y="0px"
	 width="288.461px" height="300px" viewBox="0 0 288.461 300" enable-background="new 0 0 288.461 300" xml:space="preserve">
<path d="M265.385,150c0-7.909-0.766-15.637-2.213-23.123l25.289-27.07l-28.846-49.615l-35.752,8.496
	c-11.641-10.158-25.24-18.125-40.158-23.262L173.076,0h-57.691l-10.628,35.426C89.838,40.563,76.239,48.53,64.6,58.688
	l-35.753-8.496L0,99.808l25.29,27.07c-1.446,7.485-2.212,15.213-2.212,23.122s0.766,15.637,2.212,23.122L0,200.192l28.846,49.615
	l35.753-8.496c11.639,10.158,25.239,18.125,40.158,23.263L115.385,300h57.691l10.629-35.426c14.92-5.138,28.52-13.104,40.158-23.263
	l35.752,8.496l28.846-49.615l-25.289-27.07C264.619,165.637,265.385,157.909,265.385,150z M144.231,208.923
	c-32.735,0-58.923-26.188-58.923-58.923s26.188-58.923,58.923-58.923c32.734,0,58.923,26.188,58.923,58.923
	S176.965,208.923,144.231,208.923z"/>
</svg>
