<?xml version="1.0" encoding="utf-8"?>
<!-- Generator: Adobe Illustrator 16.0.4, SVG Export Plug-In . SVG Version: 6.00 Build 0)  -->
<!DOCTYPE svg PUBLIC "-//W3C//DTD SVG 1.1//EN" "http://www.w3.org/Graphics/SVG/1.1/DTD/svg11.dtd">
<svg version="1.1" id="Layer_1" xmlns="http://www.w3.org/2000/svg" xmlns:xlink="http://www.w3.org/1999/xlink" x="0px" y="0px"
	 width="240px" height="240px" viewBox="0 0 240 240" enable-background="new 0 0 240 240" xml:space="preserve">
<path d="M240,140.001V99.735l-29.547-5.682c-1.989-6.963-4.77-13.599-8.221-19.8l16.762-24.759l-28.473-28.473l-24.709,16.731
	c-6.303-3.528-13.056-6.354-20.147-8.367L140.01,0H99.744l-5.658,29.412c-7.116,2.028-13.893,4.875-20.214,8.427L49.251,21.165
	L20.778,49.638l16.761,24.753c-3.465,6.249-6.216,12.939-8.196,19.959L0,100.002v40.266l29.46,5.673
	c2.007,6.999,4.791,13.663,8.277,19.89l-16.887,24.93l28.47,28.474l25.005-16.936c6.198,3.441,12.828,6.195,19.782,8.178L99.792,240
	h40.267l5.682-29.525c7.008-1.996,13.683-4.779,19.923-8.257l25.011,16.938l28.473-28.473l-16.94-25.018
	c3.485-6.258,6.3-12.96,8.295-19.995L240,140.001z M119.958,173.557c-29.572,0-53.547-23.973-53.547-53.548
	c0-29.574,23.973-53.547,53.547-53.547s53.547,23.973,53.547,53.547C173.505,149.583,149.529,173.557,119.958,173.557z"/>
</svg>
