<?xml version="1.0" encoding="utf-8"?>
<!-- Generator: Adobe Illustrator 16.0.4, SVG Export Plug-In . SVG Version: 6.00 Build 0)  -->
<!DOCTYPE svg PUBLIC "-//W3C//DTD SVG 1.1//EN" "http://www.w3.org/Graphics/SVG/1.1/DTD/svg11.dtd">
<svg version="1.1" id="Layer_1" xmlns="http://www.w3.org/2000/svg" xmlns:xlink="http://www.w3.org/1999/xlink" x="0px" y="0px"
	 width="232.826px" height="244.2px" viewBox="0 0 232.826 244.2" enable-background="new 0 0 232.826 244.2" xml:space="preserve">
<path d="M116.46,69.9c28.8,0,52.2,23.4,52.2,52.2s-23.4,52.2-52.2,52.2s-52.2-23.4-52.2-52.2S87.66,69.9,116.46,69.9z M1.86,168.6
	l17.1,29.4c3.6,6.3,11.4,8.699,18,5.699l14.7-6.899c9.6,8.399,20.4,14.7,32.4,18.899l1.5,15.9c0.6,7.2,6.6,12.6,13.8,12.6h33.9
	c7.2,0,13.2-5.399,13.8-12.6l1.5-15.9c12-4.199,22.801-10.5,32.4-18.899l14.7,6.6c6.6,3,14.399,0.601,18-5.7l17.1-29.399
	c3.601-6.3,1.8-14.1-3.899-18.3l-13.2-9.3c1.2-6.3,1.8-12.6,1.8-18.9c0-6.3-0.6-12.6-1.8-18.9l13.2-9.3c6-4.2,7.8-12,3.899-18.3
	l-17.1-29.4c-3.601-6.3-11.4-8.7-18-5.7l-14.7,6.6c-9.6-8.4-20.4-14.7-32.4-18.9l-1.5-15.9c-0.6-6.6-6.6-12-13.8-12h-33.9
	c-7.2,0-13.2,5.4-13.8,12.6l-1.5,15.9c-12,4.2-22.8,10.5-32.4,18.9l-14.7-6.9c-6.6-3-14.4-0.6-18,5.7L1.86,75.6
	c-3.6,6.3-1.8,14.1,3.9,18.3l13.2,9.3c-0.9,6.3-1.5,12.6-1.5,18.9s0.6,12.6,1.8,18.9l-13.2,9.3C0.06,154.2-1.74,162.3,1.86,168.6z"
	/>
</svg>
