<svg xmlns="http://www.w3.org/2000/svg" xmlns:xlink="http://www.w3.org/1999/xlink" version="1.1" x="0px" y="0px" viewBox="0 0 100 125" enable-background="new 0 0 100 100" xml:space="preserve"><path fill="#000000" d="M25,72.1c-0.1,0-0.2,0-0.3,0c-0.6-0.1-1-0.6-1-1.3c0-26.7,21.3-31,26.7-31.7V28.7c0-0.5,0.3-0.9,0.7-1.2  c0.4-0.2,1-0.1,1.4,0.2l24.4,19.9c0.3,0.2,0.5,0.6,0.5,1s-0.2,0.8-0.5,1L52.6,68.4c-0.4,0.3-0.9,0.4-1.4,0.1  c-0.4-0.2-0.7-0.7-0.7-1.2V57.2c-4.7,0.6-20,3.5-24.4,14.1C25.9,71.8,25.5,72.1,25,72.1z M52.9,31.4v8.8c0,0.7-0.5,1.3-1.2,1.3  c-1,0-22.4,1.2-25.1,24.2c8-9.7,24.4-11.2,25.2-11.2c0.4,0,0.7,0.1,1,0.3c0.3,0.2,0.4,0.6,0.4,0.9v9L74,48.6L52.9,31.4z"/><text x="0" y="115" fill="#000000" font-size="5px" font-weight="bold" font-family="'Helvetica Neue', Helvetica, Arial-Unicode, Arial, Sans-serif">Created by Ryo Sato</text><text x="0" y="120" fill="#000000" font-size="5px" font-weight="bold" font-family="'Helvetica Neue', Helvetica, Arial-Unicode, Arial, Sans-serif">from the Noun Project</text></svg>