<svg xmlns="http://www.w3.org/2000/svg" xmlns:xlink="http://www.w3.org/1999/xlink" version="1.1" x="0px" y="0px" viewBox="0 0 100 125" enable-background="new 0 0 100 100" xml:space="preserve"><g><g><path d="M43.5,17.6c13.9,0,25.1,11.3,25.1,25.1S57.3,67.8,43.5,67.8S18.3,56.6,18.3,42.7S29.6,17.6,43.5,17.6 M43.5,12.6    c-16.6,0-30.1,13.5-30.1,30.1s13.5,30.1,30.1,30.1s30.1-13.5,30.1-30.1S60.1,12.6,43.5,12.6L43.5,12.6z"/></g><g><path d="M80.4,84.9c-0.7,0-1.3-0.3-1.8-0.7L62.1,67.6c-1-1-1-2.6,0-3.5l1.3-1.3c0.5-0.5,1.1-0.7,1.8-0.7s1.3,0.3,1.8,0.7    l16.6,16.6c1,1,1,2.6,0,3.5l-1.3,1.3C81.7,84.7,81.1,84.9,80.4,84.9z"/><path d="M65.1,64.6l16.6,16.6l-1.3,1.3L63.8,65.9L65.1,64.6 M65.1,59.6c-1.3,0-2.6,0.5-3.5,1.5l-1.3,1.3c-0.9,0.9-1.5,2.2-1.5,3.5    s0.5,2.6,1.5,3.5L76.9,86c0.9,0.9,2.2,1.5,3.5,1.5c1.3,0,2.6-0.5,3.5-1.5l1.3-1.3c2-2,2-5.1,0-7.1L68.6,61    C67.7,60.1,66.4,59.6,65.1,59.6L65.1,59.6z"/></g></g><text x="0" y="115" fill="#000000" font-size="5px" font-weight="bold" font-family="'Helvetica Neue', Helvetica, Arial-Unicode, Arial, Sans-serif">Created by Guilhem</text><text x="0" y="120" fill="#000000" font-size="5px" font-weight="bold" font-family="'Helvetica Neue', Helvetica, Arial-Unicode, Arial, Sans-serif">from the Noun Project</text></svg>