<svg xmlns="http://www.w3.org/2000/svg" xmlns:xlink="http://www.w3.org/1999/xlink" version="1.1" x="0px" y="0px" viewBox="0 0 100 125" enable-background="new 0 0 100 100" xml:space="preserve"><g><g><g><path d="M27.8,45.7C28.2,56,35.8,63.6,46.2,64c10.3,0.4,18-8.7,18.4-18.4c0.4-10.3-8.7-18-18.4-18.4C35.9,26.9,28.2,36,27.8,45.7     c-0.1,3.2,4.9,3.2,5,0c0.7-17.2,26-17.2,26.7,0c0.3,7.5-6.3,13.1-13.4,13.4c-7.5,0.3-13.1-6.3-13.4-13.4     C32.6,42.5,27.6,42.4,27.8,45.7z"/></g></g><g><rect x="54.8" y="63.1" transform="matrix(-0.7071 -0.7071 0.7071 -0.7071 62.919 153.542)" width="17" height="1.3"/><g><path d="M56,59c4,4,8,8,12,12c0-1.2,0-2.4,0-3.5c-0.3,0.3-0.6,0.6-0.9,0.9c1.2,0,2.4,0,3.5,0c-4-4-8-8-12-12c0,1.2,0,2.4,0,3.5     c0.3-0.3,0.6-0.6,0.9-0.9c2.3-2.3-1.3-5.8-3.5-3.5c-0.3,0.3-0.6,0.6-0.9,0.9c-1,1-1,2.6,0,3.5c4,4,8,8,12,12c1,1,2.6,1,3.5,0     c0.3-0.3,0.6-0.6,0.9-0.9c1-1,1-2.6,0-3.5c-4-4-8-8-12-12C57.2,53.2,53.7,56.8,56,59z"/></g></g></g><text x="0" y="115" fill="#000000" font-size="5px" font-weight="bold" font-family="'Helvetica Neue', Helvetica, Arial-Unicode, Arial, Sans-serif">Created by Guilhem</text><text x="0" y="120" fill="#000000" font-size="5px" font-weight="bold" font-family="'Helvetica Neue', Helvetica, Arial-Unicode, Arial, Sans-serif">from the Noun Project</text></svg>