<svg xmlns="http://www.w3.org/2000/svg" xmlns:xlink="http://www.w3.org/1999/xlink" version="1.1" viewBox="0 0 24 30" x="0px" y="0px"><path d="M15,3H9C7.34,3 6,4.34 6,6V10H7V6C7,4.9 7.9,4 9,4H15C16.1,4 17,4.9 17,6V19C17,20.1 16.1,21 15,21H9C7.9,21 7,20.1 7,19V15H6V19C6,20.66 7.34,22 9,22H15C16.66,22 18,20.66 18,19V6C18,4.34 16.66,3 15,3M3,12H13.25L10,8.75L10.66,8L15.16,12.5L10.66,17L10,16.25L13.25,13H3V12Z"/><text x="0" y="39" fill="#000000" font-size="5px" font-weight="bold" font-family="'Helvetica Neue', Helvetica, Arial-Unicode, Arial, Sans-serif">Created by Austin Andrews</text><text x="0" y="44" fill="#000000" font-size="5px" font-weight="bold" font-family="'Helvetica Neue', Helvetica, Arial-Unicode, Arial, Sans-serif">from the Noun Project</text></svg>