<svg xmlns="http://www.w3.org/2000/svg" xmlns:xlink="http://www.w3.org/1999/xlink" version="1.1" x="0px" y="0px" viewBox="0 0 100 125" enable-background="new 0 0 100 100" xml:space="preserve"><path fill="#000000" d="M50.833,5H32.248C25.632,5,20,10.085,20,16.701v66.004C20,89.321,25.632,95,32.248,95h18.627  c1.104,0,2-0.896,2-2s-0.896-2-2-2H32.248C27.838,91,24,87.115,24,82.705V16.701C24,12.291,27.838,9,32.248,9h18.585  c1.104,0,2-0.896,2-2S51.938,5,50.833,5z"/><path fill="#000000" d="M55.269,33.435c-0.781-0.78-2.047-0.78-2.829,0L36.586,49.289C36.211,49.664,36,50.173,36,50.703  s0.211,1.039,0.586,1.414L52.44,67.972c0.391,0.391,0.902,0.586,1.415,0.586c0.512,0,1.023-0.195,1.414-0.586  c0.781-0.781,0.781-2.047,0-2.829L43.125,53H83c1.104,0,2-0.896,2-2s-0.896-2-2-2H42.532l12.737-12.736  C56.05,35.482,56.05,34.216,55.269,33.435z"/><text x="0" y="115" fill="#000000" font-size="5px" font-weight="bold" font-family="'Helvetica Neue', Helvetica, Arial-Unicode, Arial, Sans-serif">Created by Austin Condiff</text><text x="0" y="120" fill="#000000" font-size="5px" font-weight="bold" font-family="'Helvetica Neue', Helvetica, Arial-Unicode, Arial, Sans-serif">from the Noun Project</text></svg>