<svg xmlns="http://www.w3.org/2000/svg" xmlns:xlink="http://www.w3.org/1999/xlink" version="1.1" x="0px" y="0px" viewBox="0 0 48 60" enable-background="new 0 0 48 48" xml:space="preserve"><g><path d="M19.4,5.1c0,2.5,2.1,4.6,4.6,4.6s4.6-2.1,4.6-4.6c0-2.5-2.1-4.6-4.6-4.6S19.4,2.6,19.4,5.1z"/><path d="M25,13.9C24.7,14,24.3,14,24,14c-0.4,0-0.7,0-1.1-0.1L9.3,44.8c4.4,1.8,9.1,2.7,14,2.7c6.8,0,12.4-1.7,15.3-2.7L25,13.9z    M18.1,43.5c-1.3,0-2.4-1-2.4-2.3v-0.1c0-1.3,1.1-2.4,2.4-2.4c1.3,0,2.4,1.1,2.4,2.4C20.5,42.4,19.4,43.5,18.1,43.5z M21.6,28.6   v-0.1c0-1.3,1.1-2.4,2.4-2.4s2.4,1.1,2.4,2.4S25.3,31,24,31S21.6,29.9,21.6,28.6z M27.9,41.6c-1.3,0-2.4-1-2.4-2.3v-0.1   c0-1.3,1.1-2.4,2.4-2.4c1.3,0,2.4,1.1,2.4,2.4C30.3,40.5,29.2,41.6,27.9,41.6z"/></g><text x="0" y="63" fill="#000000" font-size="5px" font-weight="bold" font-family="'Helvetica Neue', Helvetica, Arial-Unicode, Arial, Sans-serif">Created by Vectors Market</text><text x="0" y="68" fill="#000000" font-size="5px" font-weight="bold" font-family="'Helvetica Neue', Helvetica, Arial-Unicode, Arial, Sans-serif">from the Noun Project</text></svg>