<svg xmlns="http://www.w3.org/2000/svg" xmlns:xlink="http://www.w3.org/1999/xlink" version="1.1" x="0px" y="0px" viewBox="0 0 100 125" enable-background="new 0 0 100 100" xml:space="preserve"><g><path d="M78.8,16.4c-8.8-5.2-20.5-1.7-26.2,7.9c-4.9,8.2-1.3,22.1,2.4,27.4l-3.6,2c-0.5,0.3-0.5,1.1,0,1.4l2.8,1.7   c-0.7,2.2-0.2,4.9,0.3,7.4c0.7,4,1.5,8.2-1.7,11.1c-1.3,1.2-3.2,2.2-5.2,3.4c-4,2.3-8.2,4.6-8.9,8.4c-0.4,2.3,0.5,4.8,2.8,7.7   c0,0,0.1,0.1,0.1,0.1c0.2,0.1,0.4,0.1,0.6,0c0.2-0.2,0.3-0.5,0.1-0.8c-2.1-2.6-3-4.8-2.6-6.8c0.6-3.3,4.6-5.5,8.4-7.7   c2.1-1.2,4-2.3,5.4-3.5c3.7-3.3,2.8-8,2.1-12.1c-0.4-2.4-0.9-4.8-0.4-6.7l2.8,1.7c0.5,0.3,1.2-0.1,1.2-0.7l0-4.1   c6.4,0.8,20.3-2.8,25.2-11.1C90.2,33.6,87.6,21.6,78.8,16.4z M79.7,24.8c0.6-0.3,1.4,0,1.7,0.6c0.3,0.6,0,1.4-0.6,1.7   c-0.6,0.3-1.4,0-1.7-0.6C78.7,25.8,79,25.1,79.7,24.8z M80,40.1c-0.1,0.1-0.2,0.1-0.2,0.1c-0.5,0.2-1.1,0.1-1.5-0.4   c-0.4-0.5-0.3-1.3,0.2-1.7c2.3-1.9,3.2-5,2.2-7.8c-0.2-0.6,0.1-1.3,0.7-1.6c0.6-0.2,1.3,0.1,1.6,0.7C84.4,33.3,83.2,37.6,80,40.1z"/><path d="M36.6,61.5c-1.4-1.3-2.7-2.5-3.6-3.7c-2.1-2.9-0.8-6.1,0.5-9.2c0.8-2,1.6-4,1.5-5.9l3-1c0.5-0.2,0.6-0.8,0.2-1.1l-2.5-2.3   c3.9-3.6,9.2-14.2,6.7-21.7C39.5,8,30.7,3.1,22.7,5.7c-8,2.7-12.1,11.9-9.2,20.6c2.5,7.5,13.1,12.8,18.4,13.3l-0.7,3.3   c-0.1,0.5,0.4,0.9,0.9,0.8l2.1-0.7c0.1,1.6-0.7,3.4-1.4,5.3c-1.3,3.2-2.7,6.8-0.4,10.1c0.9,1.3,2.3,2.5,3.7,3.8   c2.7,2.4,5.4,4.9,5.4,7.7c0,1.7-1.1,3.3-3.2,5c-0.2,0.2-0.2,0.4-0.1,0.6c0.1,0.2,0.3,0.2,0.5,0.1c0,0,0.1,0,0.1-0.1   c2.3-1.9,3.5-3.7,3.5-5.7C42.3,66.7,39.4,64.1,36.6,61.5z M29.9,10.1c-0.2,0.6-0.9,0.9-1.5,0.6c-0.6-0.2-0.9-0.9-0.6-1.5   c0.2-0.6,0.9-0.9,1.5-0.6C29.9,8.8,30.2,9.5,29.9,10.1z M31.9,12.2c-0.5-0.3-0.8-0.9-0.5-1.5c0.3-0.5,0.9-0.8,1.5-0.5   c3.2,1.6,5.1,5.1,4.5,8.7c0,0.1,0,0.2-0.1,0.2c-0.2,0.5-0.7,0.8-1.2,0.7c-0.6-0.1-1-0.6-0.9-1.2C35.6,16,34.3,13.4,31.9,12.2z"/></g><text x="0" y="115" fill="#000000" font-size="5px" font-weight="bold" font-family="'Helvetica Neue', Helvetica, Arial-Unicode, Arial, Sans-serif">Created by Egorova Valentina</text><text x="0" y="120" fill="#000000" font-size="5px" font-weight="bold" font-family="'Helvetica Neue', Helvetica, Arial-Unicode, Arial, Sans-serif">from the Noun Project</text></svg>