<svg xmlns="http://www.w3.org/2000/svg" xmlns:xlink="http://www.w3.org/1999/xlink" version="1.1" x="0px" y="0px" viewBox="0 0 90 112.5" enable-background="new 0 0 90 90" xml:space="preserve"><g><path d="M47.951,27.438c2.334-0.145,3.471-2.116,3.326-4.451c-0.146-2.334-1.52-4.149-3.854-4.004   c-2.335,0.146-3.472,2.117-3.326,4.451C44.244,25.77,45.616,27.584,47.951,27.438z"/><path d="M69.205,33.602c-0.477-0.816-1.525-1.093-2.342-0.616l-9.098,5.308l-3.898-6.682c-0.066-0.114-0.146-0.215-0.233-0.307   c-0.114-0.186-0.395-0.419-0.826-0.645c-1.478-0.77-3.739-1.672-6.452-2.386c-2.777-0.73-5.226-1.051-6.891-1.093   c-0.344,0.027-0.807,0.234-1.217,0.495c-0.121,0.061-0.238,0.132-0.346,0.224l-5.842,4.982l-6.82-7.997   c-0.612-0.72-1.693-0.805-2.413-0.192c-0.719,0.614-0.805,1.693-0.191,2.414l7.884,9.245c0.002,0.002,0.004,0.003,0.006,0.005   c0.013,0.017,0.022,0.037,0.037,0.053c0.612,0.719,1.693,0.805,2.412,0.191l7.059-6.019c0.123,0.032,0.246,0.064,0.375,0.099   l-4.229,16.078c-0.015,0.049-0.027,0.099-0.039,0.148l-0.104,0.395l0.042,0.011c-0.034,0.589,0.146,1.19,0.56,1.673l6.484,7.574   l-4.787,13.01c-0.451,1.226,0.177,2.583,1.4,3.032c1.224,0.45,2.582-0.177,3.032-1.401l5.263-14.306   c0.254-0.688,0.156-1.413-0.186-2c-0.007-0.012-0.014-0.022-0.02-0.034c-0.056-0.091-0.114-0.178-0.182-0.26   c-0.027-0.037-0.048-0.078-0.078-0.113l-4.589-5.359l1.56,0.41l6.33,6.33v14.212c0,1.304,1.057,2.36,2.36,2.36   s2.36-1.057,2.36-2.361V54.834c0-0.796-0.397-1.498-1.002-1.926l-7.438-7.439l3.243-12.331c0.015-0.055,0.024-0.106,0.038-0.16   c0.127,0.033,0.249,0.065,0.363,0.096c0.034,0.089,0.07,0.178,0.12,0.263l4.734,8.117c0.317,0.543,0.888,0.84,1.475,0.842   c0.329,0.022,0.668-0.051,0.975-0.23l10.494-6.123C69.405,35.466,69.682,34.419,69.205,33.602z"/></g><text x="0" y="105" fill="#000000" font-size="5px" font-weight="bold" font-family="'Helvetica Neue', Helvetica, Arial-Unicode, Arial, Sans-serif">Created by Eric Benoit</text><text x="0" y="110" fill="#000000" font-size="5px" font-weight="bold" font-family="'Helvetica Neue', Helvetica, Arial-Unicode, Arial, Sans-serif">from the Noun Project</text></svg>