<svg xmlns="http://www.w3.org/2000/svg" xmlns:xlink="http://www.w3.org/1999/xlink" version="1.1" x="0px" y="0px" viewBox="0 0 100 125" enable-background="new 0 0 100 100" xml:space="preserve"><g display="none"><path display="inline" d="M92.5,27.5H90V25h-2.5v-2.5H85V20h-2.5v-2.5H80V15h-2.5v-2.5H75V10h-2.5V7.5H70V5h-2.5h-35H30v2.5h-2.5   V10H25v2.5h-2.5V15H20v2.5h-2.5V20H15v2.5h-2.5V25H10v2.5H7.5V30H5v2.5v35V70h2.5v2.5H10V75h2.5v2.5H15V80h2.5v2.5H20V85h2.5v2.5   H25V90h2.5v2.5H30V95h2.5h35H70v-2.5h2.5V90H75v-2.5h2.5V85H80v-2.5h2.5V80H85v-2.5h2.5V75H90v-2.5h2.5V70v-2.5H95V30h-2.5V27.5z    M90,32.5V70h-2.5v2.5H85V75h-2.5v2.5H80V80h-2.5v2.5H75V85h-2.5v2.5H70V90h-2.5H65H40h-2.5H35h-2.5H30v-2.5h-2.5V85H25v-2.5h-2.5   V80H20v-2.5h-2.5V75H15v-2.5h-2.5V70H10v-2.5V30h2.5v-2.5H15V25h2.5v-2.5H20V20h2.5v-2.5H25V15h2.5v-2.5H30V10h2.5H35h2.5H40h25   h2.5H70v2.5h2.5V15H75v2.5h2.5V20H80v2.5h2.5V25H85v2.5h2.5V30H90V32.5z"/><polygon display="inline" points="87.5,30 85,30 85,27.5 82.5,27.5 82.5,25 80,25 80,22.5 77.5,22.5 77.5,20 75,20 75,17.5    72.5,17.5 72.5,15 70,15 70,12.5 67.5,12.5 65,12.5 62.5,12.5 60,12.5 57.5,12.5 55,12.5 52.5,12.5 50,12.5 47.5,12.5 45,12.5    42.5,12.5 40,12.5 37.5,12.5 35,12.5 32.5,12.5 30,12.5 30,15 27.5,15 27.5,17.5 25,17.5 25,20 22.5,20 22.5,22.5 20,22.5 20,25    17.5,25 17.5,27.5 15,27.5 15,30 12.5,30 12.5,67.5 12.5,70 15,70 15,72.5 17.5,72.5 17.5,75 20,75 20,77.5 22.5,77.5 22.5,80    25,80 25,82.5 27.5,82.5 27.5,85 30,85 30,87.5 32.5,87.5 35,87.5 37.5,87.5 40,87.5 42.5,87.5 45,87.5 47.5,87.5 50,87.5    52.5,87.5 55,87.5 57.5,87.5 60,87.5 62.5,87.5 65,87.5 67.5,87.5 70,87.5 70,85 72.5,85 72.5,82.5 75,82.5 75,80 77.5,80    77.5,77.5 80,77.5 80,75 82.5,75 82.5,72.5 85,72.5 85,70 87.5,70 87.5,32.5  "/></g><g><circle cx="72.428" cy="31.978" r="5.691"/><circle cx="29.497" cy="31.978" r="5.691"/><path d="M94.658,59.073l-4.491-13.03c-0.281-0.815-0.885-1.48-1.67-1.837L77.4,39.15c-0.403-0.184-0.836-0.255-1.267-0.261   l-0.001-0.021l-7.175,0.01c-0.084-0.002-0.167-0.005-0.25,0h-0.047v0.005c-0.969,0.077-1.873,0.595-2.414,1.455l-6.511,10.346   l-8.65,2.585l-8.648-2.585l-6.512-10.346c-0.404-0.643-1.017-1.091-1.704-1.312l-8.245-0.15c-1.06,0-2.075,0.531-2.661,1.462   l-6.511,10.346l-9.391,2.807c-1.664,0.497-2.61,2.25-2.111,3.914c0.497,1.663,2.242,2.609,3.914,2.113l10.521-3.146   c0.729-0.218,1.354-0.693,1.76-1.337l1.333-2.118v10.53l-3.241,12.646c-0.123,0.481-0.13,0.984-0.022,1.469l3.341,14.903   c0.328,1.463,1.626,2.458,3.065,2.458c0.229,0,0.459-0.025,0.69-0.077c1.694-0.379,2.762-2.062,2.381-3.757L25.87,76.923   l3.152-12.298c0.066-0.256,0.101-0.519,0.101-0.781v-0.375h0.996v0.375c0,0.263,0.034,0.525,0.098,0.781l3.153,12.298   l-3.176,14.166c-0.379,1.695,0.687,3.377,2.382,3.757c0.231,0.052,0.464,0.077,0.691,0.077c1.439,0,2.737-0.995,3.065-2.458   l3.34-14.903c0.109-0.485,0.102-0.987-0.022-1.469l-3.24-12.646v-10.53l1.333,2.118c0.404,0.644,1.03,1.12,1.76,1.337l10.521,3.146   c0.358,0.106,0.719,0.134,1.073,0.114c0.346,0.017,0.7-0.01,1.051-0.114l10.521-3.146c0.73-0.218,1.355-0.693,1.763-1.337   l1.332-2.118v10.53l-3.241,12.646c-0.123,0.481-0.13,0.984-0.023,1.468l3.341,14.903c0.328,1.464,1.627,2.458,3.066,2.458   c0.228,0,0.46-0.025,0.69-0.077c1.694-0.379,2.761-2.062,2.381-3.756l-3.174-14.166l3.152-12.298   c0.064-0.256,0.099-0.519,0.099-0.781v-0.375h0.896v28.308c0,1.737,1.41,3.145,3.146,3.145c1.739,0,3.146-1.408,3.146-3.145V46.902   l5.418,2.468l4.053,11.753c0.566,1.642,2.355,2.514,3.998,1.949C94.354,62.506,95.224,60.716,94.658,59.073z"/></g><text x="0" y="115" fill="#000000" font-size="5px" font-weight="bold" font-family="'Helvetica Neue', Helvetica, Arial-Unicode, Arial, Sans-serif">Created by Universal Icons</text><text x="0" y="120" fill="#000000" font-size="5px" font-weight="bold" font-family="'Helvetica Neue', Helvetica, Arial-Unicode, Arial, Sans-serif">from the Noun Project</text></svg>