<svg xmlns="http://www.w3.org/2000/svg" xmlns:xlink="http://www.w3.org/1999/xlink" version="1.1" x="0px" y="0px" viewBox="0 0 100 125" enable-background="new 0 0 100 100" xml:space="preserve"><g display="none"><circle display="inline" fill="#000000" cx="50" cy="50" r="45"/></g><g display="none"><rect x="45" y="5" display="inline" width="10" height="10"/><rect x="35" y="5" display="inline" width="10" height="10"/><rect x="25" y="15" display="inline" width="10" height="10"/><rect x="15" y="15" display="inline" width="10" height="10"/><rect x="15" y="25" display="inline" width="10" height="10"/><rect x="5" y="45" display="inline" width="10" height="10"/><rect x="5" y="55" display="inline" width="10" height="10"/><rect x="5" y="35" display="inline" width="10" height="10"/><rect x="15" y="65" display="inline" width="10" height="10"/><rect x="15" y="75" display="inline" width="10" height="10"/><rect x="25" y="75" display="inline" width="10" height="10"/><rect x="45" y="85" display="inline" width="10" height="10"/><rect x="35" y="85" display="inline" width="10" height="10"/><rect x="55" y="85" display="inline" width="10" height="10"/><rect x="65" y="75" display="inline" width="10" height="10"/><rect x="75" y="65" display="inline" width="10" height="10"/><rect x="75" y="75" display="inline" width="10" height="10"/><rect x="85" y="45" display="inline" width="10" height="10"/><rect x="85" y="55" display="inline" width="10" height="10"/><rect x="85" y="35" display="inline" width="10" height="10"/><rect x="75" y="25" display="inline" width="10" height="10"/><rect x="65" y="15" display="inline" width="10" height="10"/><rect x="75" y="15" display="inline" width="10" height="10"/><rect x="55" y="5" display="inline" width="10" height="10"/></g><g><circle cx="50.07" cy="24.957" r="6.333"/><path d="M74.808,55.108l-4.999-14.5c-0.313-0.907-0.985-1.646-1.858-2.044l-12.348-5.625c-0.45-0.205-0.93-0.285-1.409-0.291   l-0.001-0.023l-7.984,0.01c-0.093-0.001-0.186-0.005-0.278,0h-0.052v0.006c-1.079,0.085-2.086,0.662-2.688,1.618l-7.245,11.512   l-10.448,3.124c-1.852,0.554-2.905,2.504-2.351,4.356c0.554,1.852,2.504,2.901,4.356,2.351l11.708-3.5   c0.812-0.243,1.508-0.772,1.96-1.489l1.482-2.356v11.717l-3.607,14.072c-0.137,0.535-0.146,1.095-0.025,1.634l3.716,16.583   C43.103,93.893,44.548,95,46.15,95c0.253,0,0.511-0.028,0.769-0.085c1.886-0.423,3.073-2.294,2.65-4.181L46.036,74.97l3.508-13.685   c0.073-0.284,0.109-0.576,0.109-0.869v-0.417h0.999v31.5c0,1.933,1.567,3.5,3.5,3.5s3.5-1.567,3.5-3.5V41.564l6.029,2.747   L68.19,57.39c0.63,1.827,2.622,2.798,4.45,2.168C74.467,58.928,75.438,56.936,74.808,55.108z"/></g><text x="0" y="115" fill="#000000" font-size="5px" font-weight="bold" font-family="'Helvetica Neue', Helvetica, Arial-Unicode, Arial, Sans-serif">Created by Universal Icons</text><text x="0" y="120" fill="#000000" font-size="5px" font-weight="bold" font-family="'Helvetica Neue', Helvetica, Arial-Unicode, Arial, Sans-serif">from the Noun Project</text></svg>