<svg xmlns="http://www.w3.org/2000/svg" xmlns:xlink="http://www.w3.org/1999/xlink" version="1.1" x="0px" y="0px" viewBox="0 0 90 112.5" enable-background="new 0 0 90 90" xml:space="preserve"><g><path d="M78.6,39.594c-1.113-0.458-3.189-0.48-6.465-0.422c-0.934,0.01-1.771,0.013-2.506-0.003v-0.125H8.26l0.003,1.652   c0.052,18.921,5.808,31.644,16.46,37.242H14.503c-0.908,0-1.649,0.737-1.649,1.649c0,0.911,0.741,1.648,1.649,1.648h50.056   c0.91,0,1.65-0.737,1.65-1.648c0-0.912-0.74-1.649-1.65-1.649H53.162c5.779-3.037,10.109-8.175,12.873-15.268   c2.145,1.347,4.625,2.109,7.176,2.109c7.459,0,13.529-6.069,13.529-13.529C86.74,45.885,83.85,41.742,78.6,39.594z M38.945,77.898   c-21.82,0-27.009-18.95-27.363-35.557h54.723C65.951,58.948,60.762,77.898,38.945,77.898z M73.211,61.48   c-2.223,0-4.309-0.718-6.074-2.035c1.469-4.89,2.293-10.563,2.434-16.978c0.777,0.012,1.65,0.012,2.609,0.003   c1.695-0.026,4.523-0.065,5.168,0.173c2.783,1.138,6.094,3.557,6.094,8.606C83.441,56.891,78.852,61.48,73.211,61.48z"/><path d="M36.48,36.563c0.067,0.003,0.133,0.003,0.197,0.003c2.532,0,4.773-1.385,5.739-3.569c0.762-1.708,1.338-5.289-3.295-10.13   c-0.479-0.5-0.924-0.928-1.33-1.318c-1.486-1.43-2.101-2.022-2.249-4.006c-0.039-0.474,0.267-0.918,0.806-1.659   c0.889-1.221,2.377-3.263,0.696-6.272c-0.445-0.795-1.45-1.082-2.242-0.638c-0.799,0.445-1.083,1.45-0.639,2.242   c0.651,1.169,0.342,1.594-0.483,2.729c-0.692,0.954-1.556,2.139-1.43,3.846c0.245,3.237,1.64,4.581,3.253,6.133   c0.38,0.364,0.792,0.76,1.233,1.224c2.413,2.519,3.387,4.893,2.665,6.51c-0.441,0.999-1.602,1.624-2.829,1.61   c-0.702-0.02-2.429-0.31-3.272-2.548c-0.325-0.854-1.279-1.27-2.126-0.96c-0.854,0.323-1.282,1.276-0.96,2.126   C31.278,34.694,33.679,36.485,36.48,36.563z"/></g><text x="0" y="105" fill="#000000" font-size="5px" font-weight="bold" font-family="'Helvetica Neue', Helvetica, Arial-Unicode, Arial, Sans-serif">Created by Gilad Sotil</text><text x="0" y="110" fill="#000000" font-size="5px" font-weight="bold" font-family="'Helvetica Neue', Helvetica, Arial-Unicode, Arial, Sans-serif">from the Noun Project</text></svg>