<svg xmlns="http://www.w3.org/2000/svg" xmlns:xlink="http://www.w3.org/1999/xlink" version="1.1" x="0px" y="0px" viewBox="0 0 100 125" enable-background="new 0 0 100 100" xml:space="preserve"><path fill="#000000" d="M46.446,47.258c5.37-21.326,26.032-31.136,44.194-35.648c-0.35-0.396-0.703-0.788-1.081-1.164  C74.542-4.574,44.657,0.96,22.811,22.805C3.004,42.613-3.393,69.026,6.78,84.98C23.032,78.656,41.414,67.244,46.446,47.258z   M53.562,52.74C48.193,74.063,27.53,83.876,9.367,88.388c0.353,0.396,0.707,0.791,1.084,1.168  c15.02,15.019,44.902,9.484,66.749-12.361c20.051-20.052,26.346-46.865,15.635-62.75C76.812,20.497,58.829,31.821,53.562,52.74z"/><text x="0" y="115" fill="#000000" font-size="5px" font-weight="bold" font-family="'Helvetica Neue', Helvetica, Arial-Unicode, Arial, Sans-serif">Created by Mario Bieh</text><text x="0" y="120" fill="#000000" font-size="5px" font-weight="bold" font-family="'Helvetica Neue', Helvetica, Arial-Unicode, Arial, Sans-serif">from the Noun Project</text></svg>