<svg xmlns="http://www.w3.org/2000/svg" xmlns:xlink="http://www.w3.org/1999/xlink" version="1.1" x="0px" y="0px" viewBox="0 0 90 112.5" enable-background="new 0 0 90 90" xml:space="preserve"><g><path d="M37.283,30.661c2.021-0.464,2.733-2.352,2.27-4.375c-0.463-2.021-1.926-3.412-3.948-2.948   c-2.022,0.463-2.733,2.351-2.271,4.374C33.798,29.734,35.26,31.125,37.283,30.661z"/><path d="M67.23,52.498H52.514l-3.541-3.541c-0.544-0.545-1.312-0.718-2.007-0.537c-0.144-0.031-0.293-0.05-0.446-0.05   c-0.033,0-0.066,0.008-0.1,0.01h-6.247v-9.402l1.944,1.944c0.306,0.306,0.709,0.451,1.109,0.441h0.001h10.774   c0.84,0,1.52-0.68,1.518-1.518c0.002-0.839-0.678-1.518-1.518-1.518H43.816l-3.643-3.643v-1.118c0-1.014-0.822-1.836-1.836-1.836   h-3.505c-1.014,0-1.836,0.822-1.836,1.836v17.166c0,0.847,0.578,1.554,1.358,1.766H23.322v1.274h21.104v10.21   c0,1.156,0.937,2.096,2.094,2.096c1.156,0,2.094-0.939,2.094-2.096v-9.462l6.957,6.957c0.818,0.819,2.145,0.819,2.963,0.001   c0.817-0.818,0.817-2.145,0-2.963l-4.744-4.743H67.23V52.498z"/></g><text x="0" y="105" fill="#000000" font-size="5px" font-weight="bold" font-family="'Helvetica Neue', Helvetica, Arial-Unicode, Arial, Sans-serif">Created by Eric Benoit</text><text x="0" y="110" fill="#000000" font-size="5px" font-weight="bold" font-family="'Helvetica Neue', Helvetica, Arial-Unicode, Arial, Sans-serif">from the Noun Project</text></svg>