<?xml version="1.0" encoding="utf-8"?><!DOCTYPE svg PUBLIC "-//W3C//DTD SVG 1.1//EN" "http://www.w3.org/Graphics/SVG/1.1/DTD/svg11.dtd"><svg version="1.1" xmlns="http://www.w3.org/2000/svg" xmlns:xlink="http://www.w3.org/1999/xlink" x="0px" y="0px" viewBox="0 0 56.84 125" enable-background="new 0 0 56.84 100" xml:space="preserve"><g><g><g><path fill="#010101" d="M2.717,32.943c0,0,2.988-0.543,3.983,0.725c0.995,1.267,1.812,4.526,2.354,7.967
				c0.543,3.441,2.263,11.495,2.987,14.845c0.725,3.351,1.358,5.795,2.987,7.788c1.628,1.991,2.443,3.169,5.161,3.892
				c2.716,0.725,8.597,0.637,11.315,0.637c2.716,0,7.242-0.177,8.419,0.002c1.177,0.177,3.263,1.807,3.263,3.887
				c0,2.084-0.907,4.259-2.991,4.8c-2.082,0.543-15.481,0.453-18.92,0c-3.438-0.45-10.228-3.26-13.759-9.054
				S2.808,53.857,2.083,49.33C1.358,44.805,0,39.01,0,36.566C0.001,34.122,2.717,32.943,2.717,32.943z"/></g><g><path fill="#010101" d="M7.695,100c-0.358,0-0.722-0.078-1.068-0.24c-1.252-0.593-1.789-2.085-1.197-3.338L15.44,75.213
				c0.592-1.252,2.086-1.787,3.338-1.197c1.252,0.592,1.79,2.085,1.197,3.338L9.965,98.562C9.536,99.471,8.635,100,7.695,100
				L7.695,100z"/></g><g><path fill="#010101" d="M41.129,100c-1.098,0-2.105-0.725-2.416-1.834l-5.485-19.679c-0.372-1.333,0.409-2.717,1.743-3.089
				c1.332-0.37,2.718,0.406,3.09,1.742l5.485,19.679c0.373,1.333-0.408,2.716-1.742,3.089C41.579,99.971,41.352,100,41.129,100
				L41.129,100z"/></g></g><g><path fill="#010101" d="M11.988,31.253c-1.715-11.163,14.315-14.554,16.893-3.149l4.388,21.807l16.319,0.048
			c4.773,0,7.252,3.766,7.252,7.349v29.63c0,7.205-10.256,7.158-10.256-0.144c0-6.771,0-23.043,0-23.043H25.73
			c-4.866,0-7.922-3.342-8.684-7.161L11.988,31.253z"/></g><g><path fill="#010101" d="M18.37,19.229c5.295,0,9.637-4.294,9.637-9.589C28.053,4.342,23.76,0,18.416,0
			c-5.295-0.048-9.637,4.247-9.637,9.542C8.729,14.888,13.024,19.182,18.37,19.229z"/></g></g><text x="0" y="115" fill="#000000" font-size="5px" font-weight="bold" font-family="'Helvetica Neue', Helvetica, Arial-Unicode, Arial, Sans-serif">Created by Liza Keller</text><text x="0" y="120" fill="#000000" font-size="5px" font-weight="bold" font-family="'Helvetica Neue', Helvetica, Arial-Unicode, Arial, Sans-serif">from the Noun Project</text></svg>