<svg xmlns="http://www.w3.org/2000/svg" xmlns:xlink="http://www.w3.org/1999/xlink" version="1.1" x="0px" y="0px" viewBox="0 0 612 990" enable-background="new 0 0 612 792" xml:space="preserve"><g opacity="0.85"><g><g><path d="M116.3,643.9"/></g></g></g><path d="M312.3,150.4c-30.8-43.3-20.5-102.6,22.8-132.2C378.4-12.5,437.6-2.3,467.2,41c30.8,43.3,20.5,102.6-22.8,132.2  S341.9,192.6,312.3,150.4"/><path d="M478.6,299.7l-5.7,215.4c0,1.1-1.1,2.3-1.1,4.6c-12.5,27.3-41,43.3-70.7,42.2l-45.6-3.4c-1.1,0,1.1,0,0,0l-109.4-9.1  l-33,242.7l-68.4-9.1l30.8-291.7c2.3-6.8,6.8-13.7,12.5-18.2l148.1-21.7l19.4-106l-11.4,9.1c-5.7,4.6-12.5,6.8-19.4,8l-191.4,54.7  l-5.7-50.1l177.8-74.1l55.8-74.1c16-11.4,36.5-17.1,57-13.7c18.2,3.4,34.2,13.7,44.4,27.3l0,0c0,0,4.6,5.7,5.7,8  C476.4,256.4,478.6,299.7,478.6,299.7z"/><text x="0" y="807" fill="#000000" font-size="5px" font-weight="bold" font-family="'Helvetica Neue', Helvetica, Arial-Unicode, Arial, Sans-serif">by Marian Elisa Torrealba Medina</text><text x="0" y="812" fill="#000000" font-size="5px" font-weight="bold" font-family="'Helvetica Neue', Helvetica, Arial-Unicode, Arial, Sans-serif">from the Noun Project</text></svg>