<?xml version="1.0" encoding="utf-8"?>
<!-- Generator: Adobe Illustrator 16.0.4, SVG Export Plug-In . SVG Version: 6.00 Build 0)  -->
<!DOCTYPE svg PUBLIC "-//W3C//DTD SVG 1.1//EN" "http://www.w3.org/Graphics/SVG/1.1/DTD/svg11.dtd">
<svg version="1.1" id="Layer_1" xmlns="http://www.w3.org/2000/svg" xmlns:xlink="http://www.w3.org/1999/xlink" x="0px" y="0px"
	 width="76px" height="36px" viewBox="-448.5 -68.125 76 36" enable-background="new -448.5 -68.125 76 36" xml:space="preserve">
<path d="M-373.283-66.938c-0.621-0.755-1.563-1.187-2.585-1.187c-0.787,0-1.539,0.268-2.116,0.754l-32.517,27.424l-32.515-27.42
	c-0.576-0.486-1.328-0.755-2.118-0.755c-1.01,0-1.977,0.444-2.585,1.188c-0.574,0.696-0.847,1.578-0.768,2.483
	c0.08,0.908,0.503,1.73,1.195,2.316l34.654,29.226c0.603,0.506,1.361,0.784,2.137,0.784c0.776,0,1.536-0.279,2.14-0.787
	l34.658-29.227c0.689-0.586,1.112-1.409,1.19-2.32C-372.436-65.363-372.709-66.244-373.283-66.938z"/>
</svg>
