<svg xmlns="http://www.w3.org/2000/svg" xmlns:xlink="http://www.w3.org/1999/xlink" version="1.1" x="0px" y="0px" viewBox="0 0 100 125" enable-background="new 0 0 100 100" xml:space="preserve"><g><polygon points="69.373,58.435 22.222,58.435 22.099,58.112 9.493,24.882 77.254,24.882 77.254,25.882 10.942,25.882    22.911,57.435 69.373,57.435  "/><path d="M25.623,84.318c-3.266,0-5.923-2.657-5.923-5.923c0-3.268,2.657-5.926,5.923-5.926s5.923,2.658,5.923,5.926   C31.546,81.661,28.889,84.318,25.623,84.318z M25.623,73.47c-2.715,0-4.923,2.21-4.923,4.926c0,2.715,2.208,4.923,4.923,4.923   s4.923-2.208,4.923-4.923C30.546,75.68,28.338,73.47,25.623,73.47z"/><path d="M65.408,84.318c-3.268,0-5.927-2.657-5.927-5.923c0-3.268,2.659-5.926,5.927-5.926c3.265,0,5.921,2.658,5.921,5.926   C71.329,81.661,68.673,84.318,65.408,84.318z M65.408,73.47c-2.717,0-4.927,2.21-4.927,4.926c0,2.715,2.21,4.923,4.927,4.923   c2.714,0,4.921-2.208,4.921-4.923C70.329,75.68,68.122,73.47,65.408,73.47z"/><polygon points="65.805,73.473 25.623,73.473 25.623,72.473 65.012,72.473 79.479,10.986 92.531,10.986 92.531,11.986    80.271,11.986  "/></g><text x="0" y="115" fill="#000000" font-size="5px" font-weight="bold" font-family="'Helvetica Neue', Helvetica, Arial-Unicode, Arial, Sans-serif">Created by Gabriella Cinque</text><text x="0" y="120" fill="#000000" font-size="5px" font-weight="bold" font-family="'Helvetica Neue', Helvetica, Arial-Unicode, Arial, Sans-serif">from the Noun Project</text></svg>