<svg xmlns:x="http://ns.adobe.com/Extensibility/1.0/" xmlns:i="http://ns.adobe.com/AdobeIllustrator/10.0/" xmlns:graph="http://ns.adobe.com/Graphs/1.0/" xmlns="http://www.w3.org/2000/svg" xmlns:xlink="http://www.w3.org/1999/xlink" xmlns:a="http://ns.adobe.com/AdobeSVGViewerExtensions/3.0/" version="1.1" x="0px" y="0px" viewBox="0 0 100 125" enable-background="new 0 0 100 100" xml:space="preserve"><path fill="#000000" d="M65.4,69.8c-2.7,0-5,2-5.5,4.6h-22c-0.5-2.6-2.7-4.5-5.4-4.6l-1.1-7.7h37.5l0.2-0.7l7.2-28.1H27.4L26.1,24  L26,24v-0.5h-9.7v2h8l3.9,27.9l1,8.7h0.2l1.1,8.1c-2.1,0.8-3.7,2.8-3.7,5.2c0,3.1,2.5,5.6,5.6,5.6c2.7,0,5-2,5.5-4.6h22  c0.5,2.6,2.7,4.6,5.5,4.6c3.1,0,5.6-2.5,5.6-5.6C70.9,72.3,68.5,69.8,65.4,69.8z M28.1,35.2h45.7l-6.4,24.9H31.2l-1-7L28.1,35.2z   M35,77.9c-0.7,0.7-1.5,1.1-2.5,1.1c-1,0-1.9-0.4-2.5-1.1c-0.7-0.7-1.1-1.5-1.1-2.5c0-1,0.4-1.9,1.1-2.5c0.7-0.7,1.5-1.1,2.5-1.1  c1,0,1.9,0.4,2.5,1.1c0.7,0.7,1.1,1.5,1.1,2.5C36.1,76.4,35.7,77.3,35,77.9z M67.9,77.9c-0.7,0.7-1.5,1.1-2.5,1.1  c-1,0-1.9-0.4-2.5-1.1c-0.7-0.7-1.1-1.5-1.1-2.5c0-1,0.4-1.9,1.1-2.5c0.7-0.7,1.5-1.1,2.5-1.1c1,0,1.9,0.4,2.5,1.1  c0.7,0.7,1.1,1.5,1.1,2.5C69,76.4,68.6,77.3,67.9,77.9z"/><text x="0" y="115" fill="#000000" font-size="5px" font-weight="bold" font-family="'Helvetica Neue', Helvetica, Arial-Unicode, Arial, Sans-serif">Created by icons.design</text><text x="0" y="120" fill="#000000" font-size="5px" font-weight="bold" font-family="'Helvetica Neue', Helvetica, Arial-Unicode, Arial, Sans-serif">from the Noun Project</text></svg>