<svg xmlns:x="http://ns.adobe.com/Extensibility/1.0/" xmlns:i="http://ns.adobe.com/AdobeIllustrator/10.0/" xmlns:graph="http://ns.adobe.com/Graphs/1.0/" xmlns="http://www.w3.org/2000/svg" xmlns:xlink="http://www.w3.org/1999/xlink" xmlns:a="http://ns.adobe.com/AdobeSVGViewerExtensions/3.0/" version="1.1" x="0px" y="0px" viewBox="0 0 100 125" enable-background="new 0 0 100 100" xml:space="preserve"><g><path d="M90.549,30H33.613l-4.747-18.034C28.359,10.002,26.587,9,24.559,9H7.392c-1.638,0-2.678,0.636-2.322,2.233l0.691,3.489   C6.115,16.321,7.73,18,9.369,18h11.747l14.432,52.009C36.054,71.974,37.826,73,39.854,73h40.672c1.638,0,3.135-1.28,3.673-3.934   L94.752,35.54C95.706,32.407,93.824,30,90.549,30z M76.217,64H43.396l-7.421-25h48.432L76.217,64z"/><circle cx="38.026" cy="85.746" r="6.917"/><circle cx="82.495" cy="85.746" r="6.917"/></g><text x="0" y="115" fill="#000000" font-size="5px" font-weight="bold" font-family="'Helvetica Neue', Helvetica, Arial-Unicode, Arial, Sans-serif">Created by Lemon Liu</text><text x="0" y="120" fill="#000000" font-size="5px" font-weight="bold" font-family="'Helvetica Neue', Helvetica, Arial-Unicode, Arial, Sans-serif">from the Noun Project</text></svg>