<svg xmlns="http://www.w3.org/2000/svg" xmlns:xlink="http://www.w3.org/1999/xlink" version="1.1" x="0px" y="0px" viewBox="0 0 100 125" style="enable-background:new 0 0 100 100;" xml:space="preserve"><g><path style="" d="M77.605,64.28H31.809l-8.172-40.045H11.077v-3.269h15.228l2.779,13.621h59.235L77.605,64.28z    M34.478,61.011h40.831l8.356-23.155H29.752L34.478,61.011z" fill="#231F20"/><path style="" d="M41.043,82.531c-4.356,0-7.9-3.544-7.9-7.9c0-4.356,3.544-7.9,7.9-7.9c4.356,0,7.9,3.544,7.9,7.9   C48.943,78.987,45.399,82.531,41.043,82.531z M41.043,70c-2.554,0-4.631,2.077-4.631,4.631c0,2.553,2.077,4.631,4.631,4.631   c2.553,0,4.631-2.077,4.631-4.631C45.674,72.078,43.597,70,41.043,70z" fill="#231F20"/><path style="" d="M71.281,82.531c-4.356,0-7.9-3.544-7.9-7.9c0-4.356,3.544-7.9,7.9-7.9c4.356,0,7.9,3.544,7.9,7.9   C79.181,78.987,75.637,82.531,71.281,82.531z M71.281,70c-2.554,0-4.631,2.077-4.631,4.631c0,2.553,2.077,4.631,4.631,4.631   c2.553,0,4.631-2.077,4.631-4.631C75.912,72.078,73.835,70,71.281,70z" fill="#231F20"/></g><text x="0" y="115" fill="#000000" font-size="5px" font-weight="bold" font-family="'Helvetica Neue', Helvetica, Arial-Unicode, Arial, Sans-serif">Created by NAS</text><text x="0" y="120" fill="#000000" font-size="5px" font-weight="bold" font-family="'Helvetica Neue', Helvetica, Arial-Unicode, Arial, Sans-serif">from the Noun Project</text></svg>