<?xml version="1.0" encoding="utf-8"?>
<!-- Generator: Adobe Illustrator 16.0.4, SVG Export Plug-In . SVG Version: 6.00 Build 0)  -->
<!DOCTYPE svg PUBLIC "-//W3C//DTD SVG 1.1//EN" "http://www.w3.org/Graphics/SVG/1.1/DTD/svg11.dtd">
<svg version="1.1" id="Layer_1" xmlns="http://www.w3.org/2000/svg" xmlns:xlink="http://www.w3.org/1999/xlink" x="0px" y="0px"
	 width="300px" height="300px" viewBox="0 0 300 300" enable-background="new 0 0 300 300" xml:space="preserve">
<path d="M289.688,131.25L262.5,104.081V37.5c0-10.312-8.438-18.75-18.75-18.75H225c-10.312,0-18.75,8.438-18.75,18.75v10.369
	l-37.5-37.462C163.631,5.569,158.943,0,150,0c-8.944,0-13.631,5.569-18.75,10.406L10.312,131.25C4.462,137.344,0,141.788,0,150
	c0,10.556,8.1,18.75,18.75,18.75H37.5v112.5c0,10.312,8.438,18.75,18.75,18.75h56.25v-93.75c0-10.312,8.438-18.75,18.75-18.75h37.5
	c10.312,0,18.75,8.438,18.75,18.75V300h56.25c10.312,0,18.75-8.438,18.75-18.75v-112.5h18.75c10.65,0,18.75-8.194,18.75-18.75
	C300,141.788,295.537,137.344,289.688,131.25z"/>
<text transform="matrix(1 0 0 1 0 643.75)" font-family="'HelveticaNeue-BoldOutline'" font-size="93.75">Created by Danilo Celestino de Castro</text>
<text transform="matrix(1 0 0 1 0 737.5)" font-family="'HelveticaNeue-BoldOutline'" font-size="93.75">from the Noun Project</text>
</svg>
