<svg xmlns="http://www.w3.org/2000/svg" xmlns:xlink="http://www.w3.org/1999/xlink" version="1.1" x="0px" y="0px" viewBox="0 0 100 125" style="enable-background:new 0 0 100 100;" xml:space="preserve"><g><path d="M71.3,48.2l-20-16.6c-0.7-0.6-1.8-0.6-2.6,0l-20,16.6c-0.6,0.5-0.9,1.4-0.6,2.2c0.3,0.8,1,1.3,1.9,1.3h4v15.1   c0,1.1,0.9,2,2,2h9.8c1.1,0,2-0.9,2-2v-9h3.8l0.1,9.1c0,1.1,0.9,2,2,2H64c1.1,0,2-0.9,2-2V51.7h4c0.8,0,1.6-0.5,1.9-1.3   C72.2,49.6,71.9,48.7,71.3,48.2z M62,64.8h-6.3l-0.1-9.1c0-1.1-0.9-2-2-2h-7.8c-1.1,0-2,0.9-2,2v9H38V49.7c0-1.1-0.9-2-2-2h-0.4   l14.4-12l14.4,12H64c-1.1,0-2,0.9-2,2V64.8z"/></g><text x="0" y="115" fill="#000000" font-size="5px" font-weight="bold" font-family="'Helvetica Neue', Helvetica, Arial-Unicode, Arial, Sans-serif">Created by Chris Penny</text><text x="0" y="120" fill="#000000" font-size="5px" font-weight="bold" font-family="'Helvetica Neue', Helvetica, Arial-Unicode, Arial, Sans-serif">from the Noun Project</text></svg>