<svg xmlns="http://www.w3.org/2000/svg" xmlns:xlink="http://www.w3.org/1999/xlink" version="1.1" x="0px" y="0px" viewBox="0 0 100 125" enable-background="new 0 0 100 100" xml:space="preserve"><g><path d="M94.381,48.517l-12.226-10.16V15.58c0-0.521-0.167-0.948-0.503-1.283c-0.335-0.336-0.763-0.502-1.284-0.502H69.65   c-0.521,0-0.949,0.166-1.284,0.502c-0.335,0.335-0.502,0.762-0.502,1.283v10.886L54.243,15.078   c-1.19-0.968-2.605-1.451-4.243-1.451c-1.637,0-3.052,0.483-4.242,1.451L5.62,48.517c-0.372,0.298-0.577,0.696-0.614,1.201   c-0.036,0.502,0.093,0.938,0.392,1.311l3.46,4.131c0.299,0.335,0.688,0.54,1.173,0.614c0.447,0.037,0.894-0.093,1.34-0.39   l38.016-31.699c0.34-0.284,0.89-0.284,1.229,0L88.63,55.384c0.299,0.259,0.688,0.39,1.173,0.39h0.168   c0.483-0.074,0.874-0.279,1.173-0.614l3.46-4.131c0.298-0.372,0.428-0.809,0.391-1.311C94.958,49.213,94.753,48.814,94.381,48.517z   "/><path d="M57.937,51.815c-2.632-4.499-8.466-6.039-13.028-3.443c-4.562,2.597-6.125,8.347-3.491,12.845   c2.635,4.495,8.468,6.035,13.029,3.44C59.009,62.06,60.572,56.311,57.937,51.815z"/><path d="M50.618,28.595c-0.341-0.282-0.895-0.282-1.235,0c0,0-26.517,21.93-30.899,25.601c-0.339,0.284-0.613,0.876-0.615,1.317   c-0.007,1.989-0.016,18.969-0.02,26.859c0,2.21,1.79,4.001,4,4.001h56.305c2.21,0,4.002-1.791,4.002-4.001V55.681   c0-0.441-0.275-1.03-0.615-1.313L50.618,28.595z M63.137,79.871c-1.291,0.733-2.94,0.299-3.685-0.972l-5.917-10.103   c-0.078-0.135-0.138-0.274-0.19-0.416c-5.466,1.663-11.565-0.533-14.547-5.624c-3.462-5.913-1.407-13.472,4.59-16.885   c5.998-3.413,13.668-1.387,17.13,4.523c3.031,5.179,1.832,11.617-2.54,15.432c0.08,0.099,0.163,0.197,0.229,0.312l5.917,10.101   C64.868,77.512,64.426,79.137,63.137,79.871z"/></g><text x="0" y="115" fill="#000000" font-size="5px" font-weight="bold" font-family="'Helvetica Neue', Helvetica, Arial-Unicode, Arial, Sans-serif">Created by To Uyen</text><text x="0" y="120" fill="#000000" font-size="5px" font-weight="bold" font-family="'Helvetica Neue', Helvetica, Arial-Unicode, Arial, Sans-serif">from the Noun Project</text></svg>