<?xml version="1.0" encoding="utf-8"?>
<!-- Generator: Adobe Illustrator 16.0.4, SVG Export Plug-In . SVG Version: 6.00 Build 0)  -->
<!DOCTYPE svg PUBLIC "-//W3C//DTD SVG 1.1//EN" "http://www.w3.org/Graphics/SVG/1.1/DTD/svg11.dtd">
<svg version="1.1" id="Layer_1" xmlns="http://www.w3.org/2000/svg" xmlns:xlink="http://www.w3.org/1999/xlink" x="0px" y="0px"
	 width="289.712px" height="268.404px" viewBox="0 0 289.712 268.404" enable-background="new 0 0 289.712 268.404"
	 xml:space="preserve">
<g>
	<path d="M31.864,139.384v120.653c0,2.203,0.882,4.375,2.442,5.928c1.56,1.555,3.72,2.439,5.934,2.439h67.449v-88.592
		c0-2.211,0.876-4.383,2.442-5.935c1.554-1.562,3.72-2.457,5.913-2.457h57.608c2.211,0,4.353,0.897,5.922,2.457
		c1.563,1.552,2.442,3.721,2.442,5.935v88.592h67.461c2.223,0,4.338-0.855,5.919-2.439c1.563-1.58,2.442-3.691,2.442-5.928V139.228
		L143.632,50.431L31.864,139.384z"/>
	<path d="M283.173,102.013L155.062,3.469c-6.005-4.626-14.417-4.626-20.433,0L66.004,56.257V29.602h-33.51v52.422l-25.959,19.98
		c-7.326,5.643-8.703,16.164-3.06,23.487c3.288,4.287,8.262,6.537,13.275,6.537c1.836,0,3.678-0.309,5.457-0.918l117.486-93.48
		c2.262-1.806,5.442-1.824,7.71-0.06l120.356,93.573c6.564,2.133,14.022,0.138,18.478-5.652
		C291.882,118.168,290.503,107.65,283.173,102.013z"/>
</g>
</svg>
