<?xml version="1.0" encoding="utf-8"?>
<!-- Generator: Adobe Illustrator 16.0.4, SVG Export Plug-In . SVG Version: 6.00 Build 0)  -->
<!DOCTYPE svg PUBLIC "-//W3C//DTD SVG 1.1//EN" "http://www.w3.org/Graphics/SVG/1.1/DTD/svg11.dtd">
<svg version="1.1" id="Layer_1" xmlns="http://www.w3.org/2000/svg" xmlns:xlink="http://www.w3.org/1999/xlink" x="0px" y="0px"
	 width="281.999px" height="275.56px" viewBox="0 0 281.999 275.56" enable-background="new 0 0 281.999 275.56"
	 xml:space="preserve">
<path d="M21,170.7c-5.376,0-10.749-2.052-14.85-6.153c-8.202-8.199-8.199-21.498,0-29.697L141.012,0l134.838,134.853
	c8.199,8.199,8.199,21.498-0.003,29.697c-8.196,8.199-21.495,8.199-29.696-0.003L141.009,59.394L35.847,164.55
	C31.749,168.648,26.373,170.7,21,170.7z"/>
<path d="M140.994,75.588L40.992,175.593v79.965c0,11.047,8.949,20.002,19.998,20.002h40.023h15.999c2.193,0,3.966-1.771,3.993-3.961
	c0-0.015-0.009-0.026-0.009-0.041v-72c0-2.211,1.791-4.002,3.999-4.002h32.002c2.211,0,4.005,1.791,4.005,4.002v72
	c0,0.062-0.036,0.117-0.036,0.186c0.096,2.124,1.818,3.816,3.954,3.816h15.999h40.083c11.046,0,20.001-8.955,20.001-20.002v-79.965
	L140.994,75.588z"/>
<path d="M222.618,68.7V31.638c0-2.211-1.791-4.002-4.002-4.002H196.62c-2.211,0-4.002,1.791-4.002,4.002V38.7L222.618,68.7z"/>
</svg>
