<svg xmlns="http://www.w3.org/2000/svg" xmlns:xlink="http://www.w3.org/1999/xlink" version="1.1" x="0px" y="0px" viewBox="0 0 100 125" enable-background="new 0 0 100 100" xml:space="preserve"><g><g><g><path d="M88.434,70.796V23.067H12.079l-0.011,47.729H88.434z M97.418,22.394v49.075c0,4.582-3.358,8.312-7.501,8.312H10.598     c-4.145,0-7.514-3.729-7.514-8.312V22.394c0-4.582,3.369-8.311,7.514-8.311h79.319C94.06,14.083,97.418,17.812,97.418,22.394z"/></g></g></g><g><polygon points="66.56,43.61 82.933,65.857 50.196,65.857 50.265,65.779 15.496,65.779 43.223,30.349 60.293,52.146  "/></g><g><path d="M75.97,28.888c3.369,0,6.087,2.729,6.087,6.086c0,3.358-2.718,6.088-6.087,6.088s-6.086-2.729-6.086-6.088   C69.884,31.617,72.601,28.888,75.97,28.888z"/></g><text x="0" y="115" fill="#000000" font-size="5px" font-weight="bold" font-family="'Helvetica Neue', Helvetica, Arial-Unicode, Arial, Sans-serif">Created by Martha Ormiston</text><text x="0" y="120" fill="#000000" font-size="5px" font-weight="bold" font-family="'Helvetica Neue', Helvetica, Arial-Unicode, Arial, Sans-serif">from the Noun Project</text></svg>