<svg xmlns="http://www.w3.org/2000/svg" xmlns:xlink="http://www.w3.org/1999/xlink" version="1.1" x="0px" y="0px" viewBox="0 0 800 1000" enable-background="new 0 0 800 800" xml:space="preserve"><g><path fill="#000000" d="M536.4,246.4H230c-14.8,0-26.8,12-26.8,26.8v212.4c0,22.4,19.6,26.8,26.8,26.8l306.4,0.4   c17.6,0,26.8-13.2,26.8-27.2V273.2C563.2,258.4,551.2,246.4,536.4,246.4z M536.8,486.8H230V273.2h306.8V486.8z"/><polygon fill="#000000" points="243.2,472 243.2,472.4 243.5,472  "/><polygon fill="#000000" points="522.4,420.8 456.8,326.4 404,395.2 378,367.6 310.8,446.4 283.2,421.2 243.5,472 522.4,472  "/><path fill="#000000" d="M308,352.4c14-2.4,25.2-13.6,27.6-27.6c4-22.8-15.6-42.4-38.8-38.8c-14,2-25.2,13.2-27.6,27.6   C265.2,336.4,284.8,356,308,352.4z"/><path fill="#000000" d="M576.8,490l-0.4-203.2c7.2,0,26.8,19.2,26.8,26.8V526c0,15.2-12.4,27.6-27.6,27.6H270   c-7.2,0-26.8-19.2-26.8-26.8h312C582.8,526.4,576.8,490,576.8,490z"/></g><text x="0" y="815" fill="#000000" font-size="5px" font-weight="bold" font-family="'Helvetica Neue', Helvetica, Arial-Unicode, Arial, Sans-serif">Created by icons.design</text><text x="0" y="820" fill="#000000" font-size="5px" font-weight="bold" font-family="'Helvetica Neue', Helvetica, Arial-Unicode, Arial, Sans-serif">from the Noun Project</text></svg>