<?xml version="1.0" encoding="utf-8"?>
<!-- Generator: Adobe Illustrator 16.0.4, SVG Export Plug-In . SVG Version: 6.00 Build 0)  -->
<!DOCTYPE svg PUBLIC "-//W3C//DTD SVG 1.1//EN" "http://www.w3.org/Graphics/SVG/1.1/DTD/svg11.dtd">
<svg version="1.1" id="Layer_1" xmlns="http://www.w3.org/2000/svg" xmlns:xlink="http://www.w3.org/1999/xlink" x="0px" y="0px"
	 width="282px" height="187.383px" viewBox="0 0 282 187.383" enable-background="new 0 0 282 187.383" xml:space="preserve">
<g>
	<g>
		<g>
			<g>
				<path d="M282,12.618v162.147c0,6.981-4.452,12.618-9.944,12.618H9.981c-5.529,0-9.981-5.637-9.981-12.618V12.618
					C0,5.637,4.452,0,9.981,0h262.075C277.548,0,282,5.637,282,12.618z M251.796,157.182l-54.061-73.509l-20.741,28.2l-56.364-72.06
					L29.016,156.921h114.842l-0.186,0.261H251.796z M248.94,55.098c0-11.088-9.016-20.067-20.112-20.067
					s-20.112,8.979-20.112,20.067c0,11.133,9.016,20.112,20.112,20.112S248.94,66.231,248.94,55.098z"/>
			</g>
		</g>
	</g>
</g>
</svg>
