<svg xmlns="http://www.w3.org/2000/svg" xmlns:xlink="http://www.w3.org/1999/xlink" version="1.1" x="0px" y="0px" viewBox="0 0 100 125" enable-background="new 0 0 100 100" xml:space="preserve"><path fill="#000000" d="M85.644,28.07C82.58,15.521,72.966,5.362,60.609,1.606c-4.128-1.252-8.648-1.796-12.907-1.547  C34.704,0.817,23.171,8.273,17.074,19.857c-3.395,6.448-4.815,14.266-3.853,21.146c1.39,9.894,7.792,22.841,18.77,37.987  c2.86,3.944,6.438,8.54,9.776,12.545c2.418,2.906,5.812,6.8,6.825,7.817c0.417,0.428,0.519,0.504,0.759,0.575  c0.483,0.143,0.951,0.071,1.303-0.198c0.575-0.433,4.9-5.39,8.071-9.237c14.673-17.818,24.236-34.13,27.035-46.11  c0.687-2.937,0.926-4.952,0.921-7.735C86.682,33.587,86.371,31.032,85.644,28.07z M67.47,36.127  c-0.748,4.483-3.227,8.545-6.901,11.304c-3.364,2.524-7.431,3.771-11.63,3.562c-1.903-0.092-3.653-0.448-5.404-1.1  c-0.784-0.29-2.483-1.13-3.201-1.577c-3.309-2.071-5.93-5.272-7.288-8.896c-1.664-4.438-1.496-9.396,0.458-13.711  c0.941-2.087,2.442-4.179,4.076-5.675c2.978-2.732,6.377-4.285,10.367-4.738c0.845-0.097,3.344-0.066,4.158,0.046  c2.876,0.407,5.303,1.318,7.608,2.855c3.756,2.499,6.402,6.244,7.481,10.575c0.387,1.558,0.509,2.616,0.509,4.362  C67.698,34.493,67.663,34.982,67.47,36.127z"/><text x="0" y="115" fill="#000000" font-size="5px" font-weight="bold" font-family="'Helvetica Neue', Helvetica, Arial-Unicode, Arial, Sans-serif">Created by misirlou</text><text x="0" y="120" fill="#000000" font-size="5px" font-weight="bold" font-family="'Helvetica Neue', Helvetica, Arial-Unicode, Arial, Sans-serif">from the Noun Project</text></svg>