<svg xmlns="http://www.w3.org/2000/svg" xmlns:xlink="http://www.w3.org/1999/xlink" version="1.1" x="0px" y="0px" viewBox="0 0 100 125" enable-background="new 0 0 100 100" xml:space="preserve"><g><path d="M50.469,75.397l-0.961-1.226c-0.662-0.844-16.209-20.776-16.209-29.901c0-9.468,7.703-17.17,17.17-17.17   c9.469,0,17.172,7.702,17.172,17.17c0,9.125-15.549,29.057-16.211,29.901L50.469,75.397z M50.469,29.543   c-8.121,0-14.727,6.607-14.727,14.728c0,7.076,11.314,22.612,14.727,27.136c3.412-4.523,14.729-20.062,14.729-27.136   C65.197,36.15,58.59,29.543,50.469,29.543z"/><path d="M50.471,39.01L50.471,39.01c1.564,0,3.035,0.61,4.143,1.715c2.283,2.285,2.283,6.003,0,8.287   c-1.105,1.106-2.578,1.716-4.141,1.716c-1.566,0-3.039-0.61-4.146-1.716c-2.283-2.285-2.283-6.002,0-8.286   C47.434,39.62,48.904,39.01,50.471,39.01 M50.469,36.567c-2.123,0-4.248,0.81-5.869,2.431c-3.242,3.243-3.242,8.498,0,11.741   c1.621,1.621,3.748,2.432,5.873,2.432c2.123,0,4.246-0.81,5.869-2.432c3.24-3.243,3.238-8.5,0-11.741   C54.719,37.378,52.594,36.567,50.469,36.567L50.469,36.567z"/></g><g><path d="M50.469,92.47c-22.729,0-41.222-18.492-41.222-41.221s18.492-41.221,41.222-41.221S91.69,28.519,91.69,51.249   S73.198,92.47,50.469,92.47z M50.469,12.47c-21.383,0-38.778,17.396-38.778,38.779s17.396,38.779,38.778,38.779   s38.778-17.396,38.778-38.779S71.852,12.47,50.469,12.47z"/></g><text x="0" y="115" fill="#000000" font-size="5px" font-weight="bold" font-family="'Helvetica Neue', Helvetica, Arial-Unicode, Arial, Sans-serif">Created by Bernar  Novalyi</text><text x="0" y="120" fill="#000000" font-size="5px" font-weight="bold" font-family="'Helvetica Neue', Helvetica, Arial-Unicode, Arial, Sans-serif">from the Noun Project</text></svg>