<svg xmlns="http://www.w3.org/2000/svg" xmlns:xlink="http://www.w3.org/1999/xlink" version="1.1" x="0px" y="0px" viewBox="0 0 100 125" enable-background="new 0 0 100 100" xml:space="preserve"><g><g><path d="M27.941,26.708c-1.393,4.702,4.208,12.751-1.415,15.52c-1.729,0.852,0.963,0.842,1.696,0.48    c7.371-3.629,0.842-10.596,2.585-16.48C31.012,25.536,28.171,25.929,27.941,26.708L27.941,26.708z"/></g><g><path d="M27.781,68.792c-0.842,5.74,0.324,12.692,7.135,13.487c2.344,0.273,4.178-0.523,6.068-1.771    c0.993-0.655,1.939-1.375,2.982-1.952c2.166-1.199,1.838,3.099,1.814,4.236c-0.032,1.491,2.905,1.036,2.932-0.234    c0.037-1.748,0.311-5.712-2.097-6.276c-1.933-0.454-3.547,0.362-5.174,1.351c-2.834,1.72-4.893,3.923-8.354,1.553    c-3.104-2.124-2.842-7.443-2.375-10.627C30.924,67.114,27.967,67.52,27.781,68.792L27.781,68.792z"/></g><g><path d="M66.579,49.498c2.933-3.876,6.961-1.303,10.96-2.105c5.127-1.029,5.226-6.438,5.157-10.748    c-0.012-0.718-2.914-0.211-2.898,0.776c0.042,2.622,0.216,6.027-1.518,8.233c-0.894,1.137-3.669,0.29-4.899,0.185    c-3.687-0.315-7.172,0.697-9.466,3.729C63.219,50.487,66.089,50.145,66.579,49.498L66.579,49.498z"/></g><g><path d="M74.523,68.239c4.811-0.521,2.98,9.656,3.144,12.329c0.389,6.357,5.636,6.648,10.748,5.09    c1.691-0.516,1.377-1.774-0.336-1.252c-14.525,4.428-0.937-18.902-13.108-17.581C73.639,66.97,72.502,68.459,74.523,68.239    L74.523,68.239z"/></g><g><path d="M50.887,20.95c0.1-0.652,0.221-1.289,0.393-1.925c0.069-0.24,0.152-0.475,0.25-0.705c0.376-0.965,0.528-0.136-0.471-0.407    c0.96,0.26,1.786,1.171,2.473,1.839c1.765,1.713,3.282,3.668,5.185,5.24c1.448,1.197,3.318,1.869,5.144,1.08    c2.475-1.07,3.077-3.679,3.527-6.122c0.179-0.968-2.722-0.458-2.883,0.418c-0.278,1.509-0.574,3.138-1.479,4.416    c-0.186,0.263,0.463,0.326-0.474-0.105c-0.515-0.238-0.968-0.63-1.4-0.988c-1.896-1.567-3.414-3.56-5.175-5.27    c-3.554-3.453-7.255-1.754-7.973,2.948C47.853,22.357,50.754,21.82,50.887,20.95L50.887,20.95z"/></g><rect x="38.12" y="44.047" width="4.167" height="4.167"/><rect x="50.033" y="55.96" transform="matrix(0.9209 0.3897 -0.3897 0.9209 26.7396 -15.7209)" width="4.167" height="4.167"/><rect x="16.247" y="74.569" width="4.167" height="4.166"/><rect x="79.181" y="57.129" transform="matrix(0.9209 0.3898 -0.3898 0.9209 29.5075 -26.9924)" width="4.166" height="4.166"/><rect x="18.33" y="19.341" transform="matrix(0.9883 -0.1523 0.1523 0.9883 -3.0255 3.3598)" width="4.167" height="4.166"/><rect x="79.361" y="26.632" transform="matrix(0.8143 -0.5805 0.5805 0.8143 -1.5426 52.6093)" width="4.166" height="4.166"/><g><path d="M18.723,51.644c0.934,2.497,1.868,4.995,2.802,7.493c0.088,0.237,0.664,0.07,0.579-0.156    c-0.934-2.497-1.868-4.995-2.802-7.493C19.213,51.25,18.638,51.417,18.723,51.644L18.723,51.644z"/></g><g><path d="M47.475,33.635c2.167,2.167,4.334,4.333,6.501,6.5c0.115,0.116,0.653-0.096,0.543-0.206c-2.166-2.167-4.333-4.333-6.5-6.5    C47.902,33.313,47.365,33.525,47.475,33.635L47.475,33.635z"/></g><g><path d="M77.974,13.514c-1.041,2.081-2.119,4.121-3.5,6c-0.171,0.233,0.419,0.21,0.547,0.037c1.381-1.879,2.459-3.919,3.5-6    C78.656,13.278,78.072,13.317,77.974,13.514L77.974,13.514z"/></g><g><path d="M66.453,61.553c-0.034,2.382-0.529,4.675-1,7c-0.06,0.294,0.534,0.225,0.588-0.041c0.471-2.325,0.967-4.618,1-7    C67.046,61.201,66.457,61.283,66.453,61.553L66.453,61.553z"/></g><g><path d="M43.58,66.729c2.502,0.989,5.076,1.824,7.5,3c0.244,0.118,0.667-0.233,0.334-0.395c-2.424-1.177-4.999-2.011-7.501-3    C43.664,66.236,43.236,66.594,43.58,66.729L43.58,66.729z"/></g><g><path d="M61.876,82.206c2.5-1,5-2,7.5-3c0.369-0.147,0.042-0.468-0.258-0.348c-2.5,1-5,2-7.5,3    C61.249,82.006,61.576,82.326,61.876,82.206L61.876,82.206z"/></g><g><path d="M31.773,17.63c2.292-0.563,4.608-1.02,6.922-1.483c0.235-0.047,0.508-0.312,0.104-0.23    c-2.366,0.473-4.734,0.941-7.078,1.517C31.378,17.518,31.433,17.714,31.773,17.63L31.773,17.63z"/></g><g><path d="M17.977,86.57c2-1.5,4-3,6-4.5c0.258-0.193-0.325-0.178-0.46-0.076c-2,1.5-4,3-6,4.5    C17.258,86.688,17.841,86.672,17.977,86.57L17.977,86.57z"/></g><g><path d="M10.565,32.676c2,0.5,4,1,6,1.5c0.162,0.041,0.679-0.209,0.362-0.288c-2-0.5-4-1-6-1.5    C10.766,32.348,10.249,32.597,10.565,32.676L10.565,32.676z"/></g></g><text x="0" y="115" fill="#000000" font-size="5px" font-weight="bold" font-family="'Helvetica Neue', Helvetica, Arial-Unicode, Arial, Sans-serif">Created by Korokoro</text><text x="0" y="120" fill="#000000" font-size="5px" font-weight="bold" font-family="'Helvetica Neue', Helvetica, Arial-Unicode, Arial, Sans-serif">from the Noun Project</text></svg>