<svg xmlns="http://www.w3.org/2000/svg" xmlns:xlink="http://www.w3.org/1999/xlink" version="1.1" x="0px" y="0px" viewBox="0 0 100 125" enable-background="new 0 0 100 100" xml:space="preserve"><g><g><path d="M31.712,31.451c2.021-6.199,8.865-8.765,14.754-9.754c3.176-0.532,1.824-5.351-1.328-4.821    c-7.778,1.306-15.662,5.317-18.246,13.246C25.89,33.196,30.718,34.503,31.712,31.451L31.712,31.451z"/></g><g><path d="M49.282,43.363c-0.514,8.9,5.144,16.499,13.008,20.157c2.903,1.352,5.444-2.958,2.523-4.316    c-6.377-2.968-10.952-8.557-10.531-15.841C54.469,40.141,49.468,40.158,49.282,43.363L49.282,43.363z"/></g><g><path d="M68.664,18.188c3.077,2.793,4.606,6.588,4.268,10.732c-0.263,3.216,4.739,3.19,5,0c0.437-5.348-1.772-10.675-5.732-14.268    C69.818,12.493,66.271,16.018,68.664,18.188L68.664,18.188z"/></g><g><path d="M28.433,87.934c4.068-3.737,9.177-4.58,14.521-4.057c3.209,0.314,3.179-4.688,0-5c-6.691-0.656-13.043,0.914-18.057,5.521    C22.519,86.584,26.063,90.111,28.433,87.934L28.433,87.934z"/></g><g><path d="M74.198,81.779c0.149-4.893,3.88-8.297,8.165-10.089c2.929-1.226,1.645-6.065-1.33-4.822    c-6.418,2.686-11.61,7.579-11.835,14.911C69.1,85.006,74.1,84.996,74.198,81.779L74.198,81.779z"/></g><g><path d="M11.49,51.994c5.246,2.45,7.609,8.826,7.262,14.341c-0.203,3.222,4.798,3.202,5,0c0.449-7.121-3.012-15.516-9.738-18.658    C11.111,46.32,8.571,50.63,11.49,51.994L11.49,51.994z"/></g><circle cx="37.552" cy="40.362" r="3.693"/><circle cx="13.336" cy="79.146" r="3.693"/><circle cx="50.952" cy="67.388" r="3.693"/><circle cx="85.391" cy="86.954" r="3.693"/><circle cx="56.519" cy="22.671" r="3.693"/><circle cx="72.969" cy="44.573" r="3.693"/><circle cx="17.029" cy="21.586" r="3.693"/><rect x="34.035" y="55.757" transform="matrix(0.6655 -0.7464 0.7464 0.6655 -31.6809 47.8579)" width="7.034" height="7.034"/><rect x="81.874" y="33.198" transform="matrix(0.6654 -0.7465 0.7465 0.6654 1.1647 76.0281)" width="7.033" height="7.034"/><rect x="73.326" y="53.811" transform="matrix(0.6654 -0.7465 0.7465 0.6654 -17.083 76.5444)" width="7.033" height="7.034"/><rect x="13.512" y="33.197" transform="matrix(0.6653 -0.7466 0.7466 0.6653 -21.7103 25.0006)" width="7.034" height="7.035"/><circle cx="56.497" cy="86.954" r="3.693"/><rect x="25.151" y="10.801" transform="matrix(0.6654 -0.7465 0.7465 0.6654 -1.0965 26.1906)" width="7.033" height="7.034"/></g><text x="0" y="115" fill="#000000" font-size="5px" font-weight="bold" font-family="'Helvetica Neue', Helvetica, Arial-Unicode, Arial, Sans-serif">Created by Korokoro</text><text x="0" y="120" fill="#000000" font-size="5px" font-weight="bold" font-family="'Helvetica Neue', Helvetica, Arial-Unicode, Arial, Sans-serif">from the Noun Project</text></svg>